<svg xmlns="http://www.w3.org/2000/svg" width="36" height="36" viewBox="0 0 36 36">
    <g fill="none" fill-rule="nonzero">
        <path fill="#9D9D9C" d="M24.456 1.21a17.97 17.97 0 0 0-13.834.364h14.701a18.65 18.65 0 0 0-.867-.364zM34.735 11.49c-.113-.292-.233-.58-.364-.868v14.701a17.97 17.97 0 0 0 .363-13.834zM1.21 11.49a17.97 17.97 0 0 0 .364 13.833V10.63c-.13.28-.25.569-.364.86zM24.456 34.371H10.629c.284.127.572.25.864.364a17.97 17.97 0 0 0 13.834-.364h-.871z"/>
        <path fill="#D0D0D0" d="M1.574 1.574V34.37H34.37V1.574H1.574zm22.882 22.882H11.489V11.489h12.967v12.967z"/>
        <path fill="#E3E3E3" d="M11.49 24.456V11.489L5.262 5.266a17.99 17.99 0 0 0-3.69 5.363v14.694a18.034 18.034 0 0 0 3.69 5.36l6.226-6.227zM30.682 5.266l-6.226 6.223v12.967l6.226 6.226a18.034 18.034 0 0 0 3.69-5.359V10.63a17.99 17.99 0 0 0-3.69-5.363z"/>
        <path fill="#F6F6F6" d="M25.32 1.574H10.629a17.928 17.928 0 0 0-5.366 3.689l6.226 6.226h12.967l6.226-6.226a17.945 17.945 0 0 0-5.362-3.69zM24.456 24.456H11.489l-6.226 6.223a18.045 18.045 0 0 0 5.366 3.692H25.32a17.959 17.959 0 0 0 5.359-3.692l-6.223-6.223z"/>
        <path fill="#D0D0D0" d="M1.574 1.574v9.055a18.034 18.034 0 0 1 3.689-5.366l-3.69-3.69zM34.371 34.371v-9.048a17.955 17.955 0 0 1-3.689 5.356l3.69 3.692zM34.371 10.629V1.574l-3.689 3.689a17.973 17.973 0 0 1 3.69 5.366zM1.574 25.323v9.048l3.689-3.692a18.017 18.017 0 0 1-3.69-5.356z"/>
        <path fill="#E3E3E3" d="M10.629 1.574H1.574l3.689 3.689a17.973 17.973 0 0 1 5.366-3.69zM34.371 1.574h-9.048a17.973 17.973 0 0 1 5.36 3.689l3.688-3.69zM25.323 34.371h9.048l-3.689-3.692a18.045 18.045 0 0 1-5.359 3.692zM1.574 34.371h9.055a18.017 18.017 0 0 1-5.366-3.692l-3.69 3.692z"/>
    </g>
</svg>
