<svg xmlns="http://www.w3.org/2000/svg" width="128" height="30" viewBox="0 0 128 30">
    <g fill="none" fill-rule="evenodd">
        <g fill="#FEFEFE">
            <path d="M77.384 15.67c2.227-1.676 3.404-3.612 3.404-5.92V8.18h2.103v1.467c0 3.23-1.38 5.586-4.002 7.577l-1.505-1.555z"/>
            <path d="M82.528 10.914c.822 2.282 2.232 3.42 3.714 4.305l-1.254 1.694a10.029 10.029 0 0 1-3.452-3.298l.992-2.701zM51.845 10.608c-.764 0-1.343.333-1.72.987-.377.66-.568 1.576-.568 2.726 0 1.137.191 2.064.568 2.75.377.685.956 1.032 1.72 1.032.752 0 1.32-.347 1.69-1.031.375-.687.562-1.614.562-2.751 0-1.15-.187-2.065-.56-2.726-.371-.654-.94-.987-1.692-.987m0 9.538c-.724 0-1.375-.132-1.93-.397a3.715 3.715 0 0 1-1.402-1.151c-.375-.503-.664-1.123-.864-1.844-.197-.718-.297-1.536-.297-2.433 0-.888.1-1.7.297-2.418.2-.719.49-1.337.864-1.84A3.822 3.822 0 0 1 49.916 8.9c.554-.27 1.205-.407 1.929-.407.712 0 1.352.138 1.903.41a3.847 3.847 0 0 1 1.393 1.16c.375.503.664 1.123.863 1.84.198.722.298 1.534.298 2.418 0 .897-.1 1.715-.298 2.433-.2.72-.49 1.34-.863 1.844a3.73 3.73 0 0 1-1.393 1.151c-.55.265-1.191.397-1.903.397M112.734 15.5c3.264-1.041 4.832-2.506 5.277-4.922h-4.968V8.64h7.426c-.128 4-1.612 6.969-6.66 8.62l-1.075-1.759zM39.571 23.794v-8.872h-3.29v-2.057h3.29V7.662h2.28v16.132z"/>
            <path d="M31.002 19.49V8.833h6.809v2.019h-4.483v6.62h5.107v2.018zM42.752 23.794h2.33V7.663h-2.33zM58.094 23.794h2.314V7.663h-2.314zM89.888 18.735h2.175V7.663h-2.175zM86.942 18.734v-5.957h-2.45V10.72h2.45V7.662h2.167v11.072zM81.303 23.794v-5.588h2.356v3.469h8.413v2.119zM122.498 16.96V7.661h2.282v3.791h2.398v2.07h-2.398v3.436zM122.496 23.794v-4.076h-7.665V17.68h9.945v6.113zM105.241 23.794v-8.689h-2.655v-2.074h2.655V7.662h2.283v16.132z"/>
            <path d="M94.938 19.53V8.723h7.551v2.003h-5.283v2.292h4.17v2.003h-4.17v2.494h6.259v2.017zM73.54 23.794v-8.689h-2.655v-2.074h2.655V7.662h2.28v16.132z"/>
            <path d="M63.237 19.53V8.723h7.551v2.003h-5.282v2.292h4.17v2.003h-4.17v2.494h6.256v2.017z"/>
        </g>
        <g fill-rule="nonzero">
            <path fill="#9D9D9C" d="M16.76 3.78a11.58 11.58 0 0 0-8.915.234h9.475c-.19-.084-.37-.161-.56-.234zM23.385 10.404a11.09 11.09 0 0 0-.235-.559v9.475a11.58 11.58 0 0 0 .234-8.915zM1.78 10.404a11.58 11.58 0 0 0 .234 8.916V9.85a9.473 9.473 0 0 0-.234.554zM16.76 25.15H7.85c.183.082.369.162.556.235a11.58 11.58 0 0 0 8.916-.235h-.561z"/>
            <path fill="#D0D0D0" d="M2.014 4.014V25.15H23.15V4.014H2.014zm14.747 14.747H8.404v-8.357h8.357v8.357z"/>
            <path fill="#E3E3E3" d="M8.404 18.76v-8.356l-4.012-4.01A11.593 11.593 0 0 0 2.014 9.85v9.47a11.622 11.622 0 0 0 2.378 3.453l4.012-4.012zM20.773 6.394l-4.012 4.01v8.357l4.012 4.012c.995-.997 1.8-2.168 2.377-3.453V9.85a11.593 11.593 0 0 0-2.377-3.456z"/>
            <path fill="#F6F6F6" d="M17.317 4.014H7.85a11.554 11.554 0 0 0-3.458 2.378l4.012 4.012h8.357l4.012-4.012a11.565 11.565 0 0 0-3.456-2.378zM16.76 18.76H8.405l-4.012 4.01c.998.997 2.17 1.804 3.458 2.38h9.467a11.573 11.573 0 0 0 3.454-2.38l-4.01-4.01z"/>
            <path fill="#D0D0D0" d="M2.014 4.014V9.85a11.622 11.622 0 0 1 2.378-3.458L2.014 4.014zM23.15 25.15v-5.83a11.571 11.571 0 0 1-2.377 3.45l2.377 2.38zM23.15 9.85V4.014l-2.377 2.378c.996.998 1.802 2.17 2.377 3.458zM2.014 19.32v5.83l2.378-2.38a11.611 11.611 0 0 1-2.378-3.45z"/>
            <path fill="#E3E3E3" d="M7.85 4.014H2.014l2.378 2.378A11.582 11.582 0 0 1 7.85 4.014zM23.15 4.014h-5.83a11.582 11.582 0 0 1 3.453 2.378l2.377-2.378zM17.32 25.15h5.83l-2.377-2.38a11.629 11.629 0 0 1-3.453 2.38zM2.014 25.15H7.85a11.611 11.611 0 0 1-3.458-2.38l-2.378 2.38z"/>
        </g>
    </g>
</svg>
